<svg width="36" height="36" viewBox="0 0 36 36" fill="none" xmlns="http://www.w3.org/2000/svg">
<path d="M23.67 3H12.33C6.66 3 5.25 4.515 5.25 10.56V27.45C5.25 31.44 7.44 32.385 10.095 29.535L10.11 29.52C11.34 28.215 13.215 28.32 14.28 29.745L15.795 31.77C17.01 33.375 18.975 33.375 20.19 31.77L21.705 29.745C22.785 28.305 24.66 28.2 25.89 29.52C28.56 32.37 30.735 31.425 30.735 27.435V10.56C30.75 4.515 29.34 3 23.67 3ZM11.67 18C10.845 18 10.17 17.325 10.17 16.5C10.17 15.675 10.845 15 11.67 15C12.495 15 13.17 15.675 13.17 16.5C13.17 17.325 12.495 18 11.67 18ZM11.67 12C10.845 12 10.17 11.325 10.17 10.5C10.17 9.675 10.845 9 11.67 9C12.495 9 13.17 9.675 13.17 10.5C13.17 11.325 12.495 12 11.67 12ZM24.345 17.625H16.095C15.48 17.625 14.97 17.115 14.97 16.5C14.97 15.885 15.48 15.375 16.095 15.375H24.345C24.96 15.375 25.47 15.885 25.47 16.5C25.47 17.115 24.96 17.625 24.345 17.625ZM24.345 11.625H16.095C15.48 11.625 14.97 11.115 14.97 10.5C14.97 9.885 15.48 9.375 16.095 9.375H24.345C24.96 9.375 25.47 9.885 25.47 10.5C25.47 11.115 24.96 11.625 24.345 11.625Z" fill="#5D9E52"/>
</svg>
